<?xml version="1.0" standalone="no"?>
<!DOCTYPE svg PUBLIC "-//W3C//DTD SVG 20010904//EN"
 "http://www.w3.org/TR/2001/REC-SVG-20010904/DTD/svg10.dtd">
<svg version="1.0" xmlns="http://www.w3.org/2000/svg"
 width="698.000000pt" height="582.000000pt" viewBox="0 0 698.000000 582.000000"
 preserveAspectRatio="xMidYMid meet">

<g transform="translate(0.000000,582.000000) scale(0.100000,-0.100000)"
fill="#000000" stroke="none">
<path d="M3924 4155 c-11 -12 -27 -24 -35 -27 -11 -4 -12 -8 -1 -20 10 -13 10
-17 -2 -21 -9 -4 -18 -2 -21 3 -7 12 -65 13 -65 2 0 -5 -18 -18 -40 -31 -22
-12 -40 -26 -40 -32 0 -5 -6 -9 -13 -9 -7 0 -38 -22 -68 -49 -30 -27 -74 -64
-99 -83 -46 -34 -171 -177 -259 -293 -16 -22 -36 -47 -44 -56 -8 -10 -28 -39
-43 -65 -15 -27 -38 -62 -51 -77 -13 -16 -26 -39 -29 -53 -3 -13 -10 -24 -14
-24 -4 0 -13 -12 -19 -27 -5 -16 -19 -44 -29 -63 -37 -66 -56 -116 -132 -335
-52 -149 -79 -338 -80 -549 0 -170 2 -191 49 -421 4 -22 17 -68 29 -103 12
-34 19 -69 15 -77 -9 -26 -48 -17 -74 18 -29 38 -79 116 -79 122 0 2 -15 37
-34 77 -18 40 -41 100 -51 133 -10 33 -21 71 -26 85 -4 14 -15 74 -25 134 -24
156 -16 295 33 526 17 83 42 169 53 185 4 6 10 21 12 35 3 14 9 34 14 45 12
32 -36 -30 -98 -125 -52 -80 -63 -99 -101 -175 -26 -50 -74 -176 -92 -240 -9
-33 -21 -71 -26 -85 -24 -68 -48 -274 -48 -420 -1 -188 43 -429 105 -578 17
-39 18 -98 3 -108 -6 -3 -24 7 -41 22 -62 60 -163 292 -228 524 -22 81 -20 77
-31 58 -16 -29 -31 -236 -24 -333 11 -152 40 -299 83 -410 96 -250 175 -380
342 -558 57 -61 228 -197 247 -197 12 0 9 44 -8 110 -18 72 -4 244 27 317 61
145 108 217 200 303 143 134 263 255 309 311 28 34 60 73 72 87 12 15 25 40
29 56 4 17 10 37 14 46 22 42 40 130 40 192 0 38 5 78 10 89 11 20 40 27 40 9
0 -5 6 -10 14 -10 8 0 28 -11 44 -25 17 -14 35 -25 41 -25 6 0 11 -4 11 -9 0
-12 90 -111 101 -111 4 0 10 12 12 28 3 19 4 16 6 -14 0 -23 8 -47 16 -54 8
-6 17 -21 20 -31 4 -11 16 -30 28 -43 43 -45 82 -101 79 -113 -4 -19 15 -16
22 3 8 22 8 24 -8 24 -10 0 -13 8 -10 24 2 14 0 28 -6 31 -17 10 -11 27 8 23
9 -2 18 -10 18 -18 1 -8 2 -21 3 -27 2 -23 20 -14 27 13 5 17 2 29 -7 35 -11
6 -11 13 -3 27 9 14 9 24 -2 43 l-13 24 -1 -26 c0 -21 -5 -26 -25 -26 -14 0
-25 3 -25 7 0 5 -3 15 -6 24 -4 11 -1 16 10 16 10 0 16 9 16 23 0 25 -45 97
-60 97 -13 0 -13 -37 0 -45 12 -8 13 -52 1 -59 -13 -8 -34 21 -28 39 4 8 -5
28 -18 44 -28 33 -32 61 -9 61 21 0 14 34 -9 38 -10 2 -17 0 -16 -5 4 -21 -2
-33 -16 -33 -24 0 -30 28 -11 49 16 18 14 21 -36 60 -29 22 -60 47 -68 55 -8
8 -55 44 -105 80 -49 37 -107 80 -128 97 -21 17 -44 29 -51 26 -9 -4 -14 -54
-19 -195 -4 -105 -12 -226 -18 -269 -10 -78 -35 -153 -51 -153 -4 0 -8 -6 -8
-12 0 -22 -88 -110 -106 -106 -21 4 -28 16 -54 108 -12 41 -31 95 -41 120 -10
25 -27 88 -39 140 -12 52 -26 115 -31 140 -16 70 -22 314 -11 420 6 52 18 127
27 165 9 39 21 90 26 115 9 49 43 162 66 225 14 37 54 120 114 235 47 92 193
300 300 430 36 42 37 43 68 30 35 -14 34 -14 22 -38 -5 -9 -17 -69 -27 -132
-25 -154 -26 -499 -1 -575 9 -27 19 -72 23 -100 3 -27 15 -68 25 -89 10 -22
21 -54 25 -72 3 -18 14 -40 25 -50 10 -9 22 -33 25 -52 7 -36 59 -122 73 -122
16 0 60 41 66 60 8 26 25 16 25 -15 0 -16 -10 -30 -30 -42 -20 -11 -30 -25
-30 -41 0 -32 31 -25 48 11 16 32 60 47 76 25 10 -14 48 -38 60 -38 18 0 1 20
-30 35 -19 9 -38 24 -41 33 -4 9 -19 32 -35 50 -15 18 -31 44 -34 58 -4 17
-11 23 -22 19 -12 -4 -14 2 -9 35 5 38 -4 53 -18 30 -15 -24 -21 -6 -12 35 12
51 5 65 -19 40 -20 -19 -34 -6 -34 33 0 13 -4 20 -10 17 -5 -3 -10 -1 -10 4 0
6 4 11 10 11 19 0 22 72 5 153 -19 91 -22 399 -5 492 5 28 11 83 14 124 3 40
11 79 17 87 6 8 9 39 7 73 -1 32 0 57 5 54 4 -2 7 -14 7 -26 1 -17 2 -19 9 -7
5 8 5 39 2 68 -6 39 -4 52 5 52 7 0 14 -10 17 -22 4 -27 6 -23 36 74 12 37 21
77 21 88 0 18 3 19 20 10 19 -10 21 -8 18 24 -1 19 1 38 5 42 4 4 7 1 7 -7 0
-8 7 -1 15 15 8 15 15 32 15 37 0 17 -35 7 -56 -16z m-84 -105 c0 -11 -5 -20
-11 -20 -6 0 -8 7 -5 16 3 8 2 12 -4 9 -6 -3 -10 -1 -10 4 0 6 7 11 15 11 8 0
15 -9 15 -20z m-310 -330 c0 -5 -2 -10 -4 -10 -3 0 -8 5 -11 10 -3 6 -1 10 4
10 6 0 11 -4 11 -10z m178 -452 c-5 -32 -28 -35 -28 -4 0 17 5 26 16 26 10 0
14 -7 12 -22z m102 -727 c0 -6 -4 -13 -10 -16 -5 -3 -10 1 -10 9 0 9 5 16 10
16 6 0 10 -4 10 -9z m-1144 -793 c12 -39 93 -137 148 -179 28 -22 60 -48 71
-58 11 -10 34 -26 50 -37 39 -24 64 -55 65 -76 0 -9 -19 -34 -43 -55 -23 -21
-63 -62 -87 -90 -25 -29 -51 -53 -58 -53 -15 0 -48 52 -63 100 -6 19 -21 60
-34 90 -33 81 -44 114 -76 230 -28 103 -35 151 -23 163 11 11 42 -12 50 -35z
m-42 -641 c32 -14 68 -34 79 -45 l20 -21 -22 -70 c-25 -79 -46 -91 -78 -46
-10 14 -26 35 -37 48 -10 12 -27 41 -38 65 -11 23 -24 45 -29 48 -10 6 -12 47
-3 57 3 3 16 2 28 -3 11 -5 47 -20 80 -33z"/>
<path d="M4172 3052 c-11 -25 -11 -25 4 -10 9 9 15 21 13 27 -2 6 -10 -2 -17
-17z"/>
<path d="M4115 2790 c-3 -5 1 -10 10 -10 9 0 13 5 10 10 -3 6 -8 10 -10 10 -2
0 -7 -4 -10 -10z"/>
<path d="M4105 2759 c-4 -6 -4 -13 -1 -16 3 -4 6 -1 6 6 0 8 7 11 15 7 8 -3
15 -1 15 4 0 13 -27 13 -35 -1z"/>
<path d="M4090 2721 c0 -6 5 -13 10 -16 6 -3 10 1 10 9 0 9 -4 16 -10 16 -5 0
-10 -4 -10 -9z"/>
<path d="M4101 2654 c0 -11 3 -14 6 -6 3 7 2 16 -1 19 -3 4 -6 -2 -5 -13z"/>
<path d="M4180 2564 c0 -8 5 -12 10 -9 6 3 10 10 10 16 0 5 -4 9 -10 9 -5 0
-10 -7 -10 -16z"/>
<path d="M4127 2521 c3 -12 10 -21 15 -21 13 0 6 32 -9 37 -7 3 -9 -3 -6 -16z"/>
<path d="M4260 2451 c0 -12 5 -21 10 -21 6 0 10 6 10 14 0 8 -4 18 -10 21 -5
3 -10 -3 -10 -14z"/>
<path d="M3928 2435 c-7 -9 -19 -22 -25 -30 -7 -7 -13 -18 -13 -24 0 -14 37
-14 45 -1 8 14 35 13 35 -1 0 -7 -8 -18 -17 -25 -17 -12 -16 -13 5 -14 12 0
22 -4 22 -10 0 -5 5 -10 10 -10 6 0 10 7 10 15 0 8 7 15 15 15 24 0 17 26 -9
38 -14 6 -26 21 -28 34 -4 28 -31 35 -50 13z"/>
<path d="M4050 2412 c0 -18 29 -34 50 -27 22 7 28 25 8 25 -7 0 -23 3 -35 6
-13 4 -23 2 -23 -4z"/>
<path d="M4290 2398 c0 -18 18 -34 28 -24 3 4 -2 14 -11 23 -16 16 -17 16 -17
1z"/>
<path d="M4005 1710 c3 -5 10 -10 16 -10 5 0 9 5 9 10 0 6 -7 10 -16 10 -8 0
-12 -4 -9 -10z"/>
<path d="M4057 1621 c9 -11 22 -17 30 -14 18 7 2 25 -27 30 -18 3 -19 2 -3
-16z"/>
<path d="M3990 1546 c0 -9 6 -16 14 -16 8 0 17 -6 19 -12 3 -7 6 -2 6 11 1 13
-2 21 -6 18 -3 -4 -12 -2 -20 4 -10 9 -13 8 -13 -5z"/>
<path d="M3975 1510 c3 -5 8 -10 11 -10 2 0 4 5 4 10 0 6 -5 10 -11 10 -5 0
-7 -4 -4 -10z"/>
<path d="M3970 1471 c0 -10 58 -12 64 -2 3 4 -11 8 -30 8 -19 1 -34 -2 -34 -6z"/>
<path d="M4020 1409 c0 -5 5 -7 10 -4 6 3 10 8 10 11 0 2 -4 4 -10 4 -5 0 -10
-5 -10 -11z"/>
<path d="M4048 1241 c-18 -18 -23 -47 -12 -75 10 -26 24 -8 24 31 0 22 7 41
18 49 14 11 14 13 2 13 -8 0 -23 -8 -32 -18z"/>
<path d="M4250 1219 c0 -30 3 -40 10 -33 16 16 17 66 3 71 -9 3 -13 -8 -13
-38z"/>
<path d="M3973 1046 c4 -30 20 -45 31 -28 3 6 -3 21 -14 33 l-20 24 3 -29z"/>
<path d="M3964 987 c-3 -9 -4 -24 -2 -34 3 -16 5 -15 17 6 9 16 10 26 2 34 -7
7 -12 6 -17 -6z"/>
</g>
</svg>
