<?xml version="1.0" standalone="no"?>
<!DOCTYPE svg PUBLIC "-//W3C//DTD SVG 20010904//EN"
 "http://www.w3.org/TR/2001/REC-SVG-20010904/DTD/svg10.dtd">
<svg version="1.0" xmlns="http://www.w3.org/2000/svg"
 width="371.000000pt" height="458.000000pt" viewBox="0 0 371.000000 458.000000"
 preserveAspectRatio="xMidYMid meet">

<g transform="translate(0.000000,458.000000) scale(0.100000,-0.100000)"
fill="#000000" stroke="none">
<path d="M2180 4525 c-85 -23 -184 -78 -310 -170 -139 -102 -227 -148 -359
-184 -155 -43 -221 -93 -295 -221 -27 -47 -41 -59 -108 -95 -92 -48 -121 -72
-146 -122 -60 -117 -23 -248 87 -317 20 -12 90 -46 156 -75 151 -66 165 -75
165 -106 0 -18 -15 -35 -56 -66 -95 -72 -126 -157 -89 -246 8 -19 15 -39 15
-43 0 -4 -33 -29 -72 -55 -423 -280 -747 -639 -948 -1050 -231 -471 -257 -821
-90 -1171 127 -265 369 -469 639 -542 128 -34 357 -37 530 -7 123 21 124 21
386 -30 110 -22 458 -31 566 -16 77 11 436 87 689 146 280 65 468 232 562 498
45 126 68 279 68 446 0 402 -138 740 -463 1135 -102 124 -349 364 -513 499
-72 59 -137 120 -143 134 -12 26 -61 295 -61 333 0 13 58 50 218 140 120 67
244 142 276 166 215 169 172 418 -96 555 l-88 44 0 40 c0 55 -31 163 -63 217
-33 57 -91 110 -159 145 -45 23 -68 27 -148 30 -62 2 -114 -2 -150 -12z m275
-147 c80 -30 124 -93 125 -179 0 -87 -25 -142 -227 -490 -147 -253 -191 -316
-253 -357 -126 -86 -235 -48 -276 96 -67 236 -71 247 -93 250 -21 3 -22 2 -15
-86 7 -92 -6 -182 -29 -200 -14 -12 -131 10 -153 28 -24 21 -101 151 -138 235
-89 205 -69 272 99 324 116 37 262 114 415 220 175 122 247 159 332 171 72 9
169 4 213 -12z m305 -446 c62 -31 114 -92 130 -153 10 -36 8 -45 -14 -82 -45
-77 -90 -109 -364 -256 -84 -45 -161 -81 -170 -79 -10 2 -18 14 -20 31 -3 21
18 61 83 162 83 131 192 311 227 374 22 40 54 40 128 3z m-1075 -632 c16 -6
17 -9 5 -13 -25 -9 -195 -36 -199 -31 -9 9 34 45 63 53 31 9 94 4 131 -9z
m400 -145 c102 -28 191 -65 213 -88 21 -23 48 -105 37 -115 -3 -4 -30 5 -58
20 -127 65 -231 90 -379 89 -143 0 -267 -23 -414 -77 -68 -24 -125 -44 -128
-44 -2 0 -9 15 -16 34 -14 44 1 77 49 104 44 24 213 79 284 92 80 14 341 5
412 -15z m-180 -275 c26 0 84 -61 152 -158 64 -93 236 -282 246 -272 5 5 -89
186 -176 343 -32 56 -36 68 -22 73 44 17 172 -63 421 -262 578 -461 915 -1024
914 -1525 -1 -237 -64 -452 -174 -590 -76 -97 -217 -175 -348 -193 -54 -8 -58
-2 -25 40 37 48 287 445 287 458 0 15 -41 40 -49 29 -4 -4 -34 -48 -66 -97
-192 -294 -506 -497 -848 -551 -367 -57 -705 11 -1075 215 -50 27 -95 50 -101
50 -5 0 -13 -9 -16 -20 -5 -17 12 -38 87 -109 51 -49 90 -92 87 -95 -14 -15
-140 -28 -219 -22 -267 19 -507 158 -654 380 -108 163 -153 368 -135 610 10
135 40 243 115 414 230 522 610 943 1078 1197 65 35 206 85 239 85 22 0 -4
-49 -82 -155 -65 -88 -86 -123 -79 -132 21 -26 32 -17 213 156 121 117 165
146 203 135 8 -2 20 -4 27 -4z"/>
<path d="M1790 2547 c-14 -7 -33 -29 -44 -51 -25 -51 -10 -108 37 -136 39 -24
68 -25 108 -5 34 18 49 50 49 101 0 46 -14 70 -50 89 -35 18 -67 19 -100 2z"/>
<path d="M1141 2334 c-28 -35 -26 -69 4 -99 30 -30 54 -31 89 -4 19 15 26 30
26 55 0 69 -78 101 -119 48z"/>
<path d="M2391 2324 c-28 -35 -26 -69 4 -99 27 -28 45 -31 78 -14 30 16 37 28
37 67 0 67 -78 98 -119 46z"/>
<path d="M1793 2261 c-15 -15 -48 -73 -72 -127 -25 -54 -65 -142 -89 -194
l-43 -95 -31 35 c-154 174 -255 280 -275 289 -57 26 -67 0 -119 -314 -14 -88
-29 -163 -33 -167 -3 -3 -78 34 -166 83 -128 71 -167 89 -195 87 -32 -3 -35
-6 -38 -36 -3 -27 18 -72 104 -230 59 -109 132 -242 161 -297 30 -55 63 -108
75 -117 19 -17 70 -18 758 -18 688 0 739 1 758 18 10 9 85 136 165 282 185
338 179 326 175 363 -3 28 -7 32 -36 35 -27 3 -67 -15 -199 -88 -91 -50 -167
-89 -169 -88 -1 2 -19 101 -38 220 -19 118 -41 227 -47 242 -15 32 -55 35 -91
6 -14 -10 -81 -82 -148 -160 -68 -77 -126 -140 -129 -140 -3 1 -44 85 -90 188
-85 190 -121 252 -146 252 -7 0 -26 -13 -42 -29z m125 -339 c86 -192 118 -240
150 -223 18 10 78 72 205 214 43 48 82 87 86 87 3 0 19 -82 35 -182 34 -226
42 -255 66 -268 23 -12 51 -1 198 80 50 28 92 49 92 46 0 -2 -32 -62 -71 -133
-39 -70 -87 -156 -106 -191 -19 -34 -45 -69 -58 -78 -20 -13 -95 -15 -612 -12
-323 1 -628 5 -678 8 l-90 5 -73 130 c-41 72 -91 160 -112 198 -21 37 -35 67
-30 67 4 0 37 -16 72 -36 171 -97 205 -107 228 -65 5 10 23 106 41 212 17 107
34 200 38 207 5 9 49 -34 136 -132 71 -80 139 -150 151 -156 41 -23 58 0 150
210 48 110 90 200 93 200 4 0 43 -84 89 -188z"/>
<path d="M534 1800 c-27 -10 -141 -256 -194 -419 -48 -147 -64 -247 -57 -359
9 -152 80 -313 140 -320 30 -4 67 21 67 44 0 7 -16 43 -36 78 -104 190 -69
448 111 806 45 90 56 139 33 157 -22 17 -42 21 -64 13z"/>
<path d="M1124 1045 l-28 -24 29 -31 29 -30 677 0 c669 0 677 0 703 21 33 26
33 42 0 68 -26 21 -34 21 -704 21 l-677 0 -29 -25z"/>
<path d="M545 631 c-29 -12 -44 -33 -51 -69 -5 -26 -1 -36 25 -63 27 -26 37
-30 64 -25 41 8 67 39 67 81 0 57 -55 97 -105 76z"/>
</g>
</svg>
