<?xml version="1.0" standalone="no"?>
<!DOCTYPE svg PUBLIC "-//W3C//DTD SVG 20010904//EN"
 "http://www.w3.org/TR/2001/REC-SVG-20010904/DTD/svg10.dtd">
<svg version="1.0" xmlns="http://www.w3.org/2000/svg"
 width="515.000000pt" height="512.000000pt" viewBox="0 0 515.000000 512.000000"
 preserveAspectRatio="xMidYMid meet">

<g transform="translate(0.000000,512.000000) scale(0.100000,-0.100000)"
fill="#000000" stroke="none">
<path d="M1555 4990 c-138 -21 -247 -49 -357 -91 -42 -16 -80 -29 -83 -29 -17
0 -212 -105 -268 -144 -36 -25 -69 -46 -72 -46 -11 0 -119 -90 -194 -163 -187
-182 -338 -406 -416 -621 -13 -34 -28 -74 -34 -91 -71 -195 -110 -543 -82
-726 7 -40 16 -108 22 -149 16 -128 76 -312 154 -470 45 -90 57 -113 86 -152
16 -24 41 -61 56 -83 87 -134 315 -356 452 -440 9 -5 40 -25 70 -44 62 -39
201 -111 216 -111 6 0 32 -11 59 -25 27 -14 57 -25 66 -25 10 0 39 -9 66 -19
49 -19 158 -43 289 -62 40 -6 155 -9 270 -7 160 4 218 9 290 27 50 12 113 27
140 33 28 6 57 15 65 19 8 5 40 17 70 28 94 32 125 45 153 64 14 9 33 17 41
17 8 0 27 10 43 23 15 12 40 28 55 34 14 7 54 32 88 57 34 25 71 46 83 46 13
0 68 -49 152 -132 l131 -133 0 -120 c-1 -112 1 -124 28 -180 16 -33 43 -77 60
-98 52 -65 988 -994 1031 -1023 51 -35 184 -74 249 -74 62 0 191 39 237 71
119 83 167 160 200 321 16 76 -19 229 -67 295 -38 52 -943 963 -1020 1026 -88
74 -212 110 -339 100 l-70 -6 -126 126 c-70 69 -129 137 -133 150 -4 18 6 39
43 88 47 63 56 79 118 201 70 141 126 294 143 389 5 30 16 88 25 129 14 61 16
119 12 310 -4 211 -7 246 -31 347 -14 61 -33 127 -41 147 -8 19 -15 44 -15 54
0 11 -11 39 -24 64 -13 25 -27 59 -30 76 -4 17 -14 36 -21 42 -8 6 -19 28 -26
48 -7 20 -20 48 -29 62 -10 14 -31 48 -49 75 -17 28 -38 59 -46 70 -9 11 -29
38 -46 60 -69 93 -215 246 -255 268 -9 5 -51 37 -94 71 -76 60 -106 80 -185
121 -22 11 -49 26 -60 32 -65 37 -231 101 -315 122 -198 50 -281 61 -465 66
-113 3 -179 -1 -270 -15z m495 -435 c107 -24 227 -62 285 -90 28 -13 61 -28
75 -34 34 -16 140 -81 179 -111 47 -37 241 -229 277 -275 17 -22 43 -60 59
-85 15 -25 32 -46 36 -48 5 -2 9 -8 9 -14 0 -9 42 -102 80 -178 9 -19 20 -52
24 -73 4 -21 17 -66 28 -100 19 -56 21 -84 21 -297 1 -211 -1 -241 -20 -295
-11 -33 -23 -76 -27 -95 -8 -40 -35 -107 -78 -195 -94 -188 -249 -375 -408
-488 -87 -62 -231 -145 -267 -153 -15 -3 -37 -12 -48 -19 -19 -12 -141 -47
-230 -66 -141 -30 -464 -18 -573 22 -29 10 -60 19 -68 19 -24 0 -226 89 -274
120 -58 38 -126 85 -137 95 -6 5 -37 33 -69 60 -31 28 -71 66 -88 85 -17 19
-42 45 -56 59 -77 79 -201 304 -242 441 -57 189 -67 244 -67 398 -1 99 5 151
29 267 16 80 36 158 45 175 8 16 15 35 15 42 0 7 7 27 16 43 9 17 34 65 56
107 21 43 43 80 48 83 5 3 24 31 42 63 41 72 214 245 309 309 93 63 247 144
329 172 36 13 124 36 195 52 118 26 144 28 275 25 87 -2 175 -11 220 -21z"/>
</g>
</svg>
